<svg xmlns="http://www.w3.org/2000/svg" viewBox="0 0 760 256" width="100%" height="100%">
  <title>Elenchus Lockup b1-lens</title>
  <!-- Symbol on left (centered in 256x256 box) -->
  <g transform="translate(10, 0)">
    <g fill="#000000" fill-rule="evenodd">
    <!-- Psili: Smooth breathing arc -->
    <path d="M 104 32 C 114 32 120 38 120 46 C 120 49 117 51 114 51 C 111 51 110 49 110 46 C 110 42 106 39 104 40 Z" />
    <!-- Oxia: 45° Acute Refutation Spark -->
    <polygon points="140,48 164,24 174,28 150,52" />

    <!-- Circular Lunate Caliper Epsilon Body -->
    <path d="M 183.2 86.8
             A 78 78 0 1 0 183.2 197.2
             L 166.2 180.2
             A 54 54 0 1 1 166.2 103.8
             Z" />

    <!-- Central Dialectic Nexus: Reaching Touch across 10px Gap -->
    <!-- Left Thesis Beam (reaching from inner spine) -->
    <polygon points="74,130 126,130 134,142 126,154 74,154" />
    <!-- Right Antithesis Beam (reaching inward from right) -->
    <polygon points="144,142 152,130 186,130 186,154 152,154" />
  </g>

  </g>
  <!-- Wordmark on right: elenchus in General Sans / Aeonik styling -->
  <text x="270" y="156"
        fill="#000000"
        font-family="'General Sans', -apple-system, BlinkMacSystemFont, 'Segoe UI', Roboto, sans-serif"
        font-size="82"
        font-weight="400"
        letter-spacing="-1.8">elenchus</text>
</svg>
